/* XPM */
static char * logo2_xpm[] = {
"74 86 131 2",
"  	c #B2B2B2B2AFAF",
". 	c #CBCBCBCBC8C8",
"X 	c #CBCBCBCBC9C9",
"o 	c #BDBDBDBDB9B9",
"O 	c #D2D2D2D2CFCF",
"+ 	c #D9D9D9D9D7D7",
"@ 	c #D6D6D6D6D4D4",
"# 	c #BEBEBEBEBBBB",
"$ 	c #CACACACAC9C9",
"% 	c #CDCDCDCDCBCB",
"& 	c #B1B1B1B1ADAD",
"* 	c #C5C5C5C5C2C2",
"= 	c #D0D0D0D0CECE",
"- 	c #CACACACAC8C8",
"; 	c #BBBBBBBBB9B9",
": 	c #E3E3E3E3E2E2",
"> 	c #E4E4E4E4E3E3",
", 	c #CDCDCDCDCACA",
"< 	c #B6B6B6B6B4B4",
"1 	c #B6B6B6B6B3B3",
"2 	c #B7B7B7B7B4B4",
"3 	c #CFCFCFCFCDCD",
"4 	c #E5E5E5E5E4E4",
"5 	c #E1E1E1E1E0E0",
"6 	c #B8B8B8B8B4B4",
"7 	c #929292928E8E",
"8 	c #919191918C8C",
"9 	c #939393938E8E",
"0 	c #C1C1C1C1BEBE",
"q 	c #C9C9C9C9C7C7",
"w 	c #CCCCCCCCCACA",
"e 	c #C4C4C4C4C1C1",
"r 	c #F3F3F3F3F3F3",
"t 	c #FAFAFAFAFAFA",
"y 	c #EBEBEBEBEAEA",
"u 	c #BEBEBEBEBCBC",
"i 	c #D2D2D2D2D0D0",
"p 	c #EEEEEEEEEEEE",
"a 	c #BBBBBBBBB8B8",
"s 	c #B8B8B8B8B5B5",
"d 	c #EFEFEFEFEEEE",
"f 	c #EAEAEAEAE9E9",
"g 	c #E8E8E8E8E7E7",
"h 	c #ECECECECEBEB",
"j 	c #D5D5D5D5D3D3",
"k 	c #D4D4D4D4D3D3",
"l 	c #B9B9B9B9B6B6",
"z 	c #EAEAEAEAEAEA",
"x 	c #E9E9E9E9E8E8",
"c 	c #E7E7E7E7E6E6",
"v 	c #E6E6E6E6E5E5",
"b 	c #E6E6E6E6E4E4",
"n 	c #B9B9B9B9B7B7",
"m 	c #D8D8D8D8D6D6",
"M 	c #E2E2E2E2E1E1",
"N 	c #BCBCBCBCBABA",
"B 	c #565658585454",
"V 	c #555557575353",
"C 	c #D7D7D7D7D5D5",
"Z 	c #BFBFBFBFBDBD",
"A 	c #5A5A5C5C5858",
"S 	c #FFFFFFFFFFFF",
"D 	c #C2C2C2C2C0C0",
"F 	c #5D5D5F5F5B5B",
"G 	c #DCDCDFDFD8D8",
"H 	c #E3E3E5E5E0E0",
"J 	c #EAEAEBEBE8E8",
"K 	c #F0F0F2F2EFEF",
"L 	c #F7F7F8F8F7F7",
"P 	c #FDFDFDFDFDFD",
"I 	c #5E5E60605C5C",
"U 	c #C6C6C6C6C4C4",
"Y 	c #606062625E5E",
"T 	c #DFDFE2E2DCDC",
"R 	c #E6E6E8E8E4E4",
"E 	c #EDEDEEEEEBEB",
"W 	c #F3F3F4F4F2F2",
"Q 	c #F8F8F8F8F7F7",
"! 	c #F7F7F8F8F6F6",
"~ 	c #616163635F5F",
"^ 	c #E0E0E0E0DFDF",
"/ 	c #636365656161",
"( 	c #E1E1E4E4DFDF",
") 	c #E6E6E9E9E4E4",
"_ 	c #EBEBEDEDEAEA",
"` 	c #EFEFF1F1EEEE",
"' 	c #F0F0F1F1EFEF",
"] 	c #EEEEEFEFECEC",
"[ 	c #646467676262",
"{ 	c #666668686464",
"} 	c #E0E0E3E3DDDD",
"| 	c #E3E3E6E6E1E1",
" .	c #E7E7E9E9E4E4",
"..	c #E8E8EAEAE6E6",
"X.	c #E7E7E9E9E5E5",
"o.	c #E4E4E7E7E2E2",
"O.	c #68686A6A6565",
"+.	c #DFDFDFDFDEDE",
"@.	c #6A6A6C6C6767",
"#.	c #DDDDE0E0DADA",
"$.	c #DEDEE1E1DBDB",
"%.	c #E0E0E2E2DDDD",
"&.	c #DBDBDEDED8D8",
"*.	c #6B6B6D6D6969",
"=.	c #D3D3D3D3D1D1",
"-.	c #6D6D6F6F6A6A",
";.	c #D8D8DBDBD5D5",
":.	c #D7D7DBDBD4D4",
">.	c #D8D8DBDBD4D4",
",.	c #D7D7DBDBD3D3",
"<.	c #D5D5D9D9D1D1",
"1.	c #D3D3D7D7CFCF",
"2.	c #6E6E71716C6C",
"3.	c #D7D7D7D7D4D4",
"4.	c #707072726D6D",
"5.	c #717174746F6F",
"6.	c #DEDEDEDEDDDD",
"7.	c #DADADADAD8D8",
"8.	c #747476767171",
"9.	c #737375757070",
"0.	c #DDDDDDDDDCDC",
"q.	c #DDDDDDDDDBDB",
"w.	c #DCDCDCDCDBDB",
"e.	c #DBDBDBDBDADA",
"r.	c #DADADADAD9D9",
"t.	c #D9D9D9D9D8D8",
"y.	c #D7D7D7D7D6D6",
"u.	c #D6D6D6D6D5D5",
"i.	c #D3D3D3D3D2D2",
"p.	c #CDCDCDCDCCCC",
"a.	c #D0D0D0D0CFCF",
"  . X o O + + + + + + + + + + + + + + + + + + + + + + + + + + + + + @ # $ % & * = = = = = = = = = = = = = = = = = = = = = = = = = = = = = -   . X o ",
"; : > , < 1 1 1 1 1 1 1 1 1 1 1 1 1 1 1 1 1 1 1 1 1 1 1 1 1 1 1 1 1 2 3 4 5 6 7 8 8 8 8 8 8 8 8 8 8 8 8 8 8 8 8 8 8 8 8 8 8 8 8 8 8 8 8 8 9 ; : > , ",
", : 4 3 2 1 1 1 1 1 1 1 1 1 1 1 1 1 1 1 1 1 1 1 1 1 1 1 1 1 1 1 1 1 < , : 4 3 2 1 1 1 1 1 1 1 1 1 1 1 1 1 1 1 1 1 1 1 1 1 1 1 1 1 1 1 1 1 1 , : 4 3 ",
"0 q w e r t t t t t t t t t t t t t t t t t t t t t t t t t t t t t y 0 q w u @ + + + + + + + + + + + + + + + + + + + + + + + + + + + + + i o . w e ",
"p a s d f g g g g g g g g g g g g g g g g g g g g g g g g g g g g g h p a s j + + + + + + + + + + + + + + + + + + + + + + + + + + + + + + + k l s d ",
"z 1 1 x c c c c c c c c c c c c c c c c c c c c c c c c c c c c c c c z 1 1 + + + + + + + + + + + + + + + + + + + + + + + + + + + + + + + + + 1 1 x ",
"c 1 1 c c c c c c c c c c c c c c c c c c c c c c c c c c c c c c c c c 1 1 + + + + + + + + + + + + + + + + + + + + + + + + + + + + + + + + + 1 1 c ",
"c 1 1 c c c c c c c c c c c c c c c c c c c c c c c c c c c c c c c c c 1 1 + + + + + + + + + + + + + + + + + + + + + + + + + + + + + + + + + 1 1 c ",
"v 1 1 v v v v v v v v v v v v v v v v v v v v v v v v v v v v v v v v v 1 1 + + + + + + + + + + + + + + + + + + + + + + + + + + + + + + + + + 1 1 v ",
"b 1 1 b b b b b b b b b b b b b b b b b b b b b b b b b b b b b b b b b 1 1 + + + + + + + + + + + + + + + + + + + + + + + + + + + + + + + + + 1 1 b ",
"4 1 1 4 4 4 4 4 4 4 4 4 4 4 4 4 4 4 4 4 4 4 4 4 4 4 4 4 4 4 4 4 4 4 4 4 1 1 + + + + + + + + + + + + + + + + + + + + + + + + + + + + + + + + + 1 1 4 ",
"4 1 1 4 4 4 4 4 4 4 4 4 4 4 4 4 4 4 4 4 4 4 4 4 4 4 4 4 4 4 4 4 4 4 4 4 1 1 + + + + + + + + + + + + + + + + + + + + + + + + + + + + + + + + + 1 1 4 ",
"> 1 1 > > > > > > > > > > > > > > > > > > > > > > > > > > > > > > > > > 1 1 + + + + + + + + + + + + + + + + + + + + + + + + + + + + + + + + + 1 1 > ",
"> 1 1 > > > > > > > > > > > > > > > > > > > > > > > > > > > > > > > > > 1 1 + + + + + + + + + + + + + + + + + + + + + + + + + + + + + + + + + 1 1 > ",
": 1 1 : : : : : : : : : : : : : : : : : : : : : : : : : : : : : : : : : 1 1 + + + + + + + + + + + + + + + + + + + + + + + + + + + + + + + + + 1 1 : ",
": 1 1 : : : : : : : : : : : : : : : : : : : : : : : : : : : : : : : : : 1 1 + + + + + + + + + + + + + + + + + + + + + + + + + + + + + + + + + 1 1 : ",
": 1 1 : : : : : : : : : : : : : : : : : : : : : : : : : : : : : : : : : 1 1 + + + + + + + + + + n n n n n n n n n n n n m + + + + + + + + + + 1 1 : ",
"M 1 1 M M M M M M M M M M M M M M M M M M M M M M M M M M M M M M M M M 1 1 + + + + + + + + + + N B V V V V V V V V V ; C + + + + + + + + + + 1 1 M ",
"M 1 1 M M M M M M M M M M M M M M M M M M M M M M M M M M M M M M M M M 1 1 + + + + + + + + + + Z A S S S S S S S S A Z C + + + + + + + + + + 1 1 M ",
"5 1 1 5 5 5 5 5 5 5 5 5 5 5 5 5 5 5 5 5 5 5 5 5 5 5 5 5 5 5 5 5 5 5 5 5 1 1 + + + + + + + + + + D F S G H J K L P S I D C + + + + + + + + + + 1 1 5 ",
"5 1 1 5 5 5 5 5 5 5 5 5 5 5 5 5 5 5 5 5 5 5 5 5 5 5 5 5 5 5 5 5 5 5 5 5 1 1 + + + + + + + + + + U Y S T R E W Q ! S ~ U C + + + + + + + + + + 1 1 5 ",
"^ 1 1 ^ ^ ^ ^ ^ ^ ^ ^ ^ ^ ^ ^ ^ ^ ^ ^ ^ ^ ^ ^ ^ ^ ^ ^ ^ ^ ^ ^ ^ ^ ^ ^ ^ 1 1 + + + + + + + + + + q / S ( ) _ ` ' ] S [ q C + + + + + + + + + + 1 1 ^ ",
"^ 1 1 ^ ^ ^ ^ ^ ^ ^ ^ ^ ^ ^ ^ ^ ^ ^ ^ ^ ^ ^ ^ ^ ^ ^ ^ ^ ^ ^ ^ ^ ^ ^ ^ ^ 1 1 + + + + + + + + + + % { S } |  ...X.o.S O.w C + + + + + + + + + + 1 1 ^ ",
"+.1 1 +.+.+.+.+.+.+.+.+.+.+.+.+.+.+.+.+.+.+.+.+.+.+.+.+.+.+.+.+.+.+.+.+.1 1 + + + + + + + + + + = @.S #.$.%.%.$.&.S *.= C + + + + + + + + + + 1 1 +.",
"+.1 1 +.+.+.+.+.+.+.+.+.+.+.+.+.+.+.+.+.+.+.+.+.+.+.+.+.+.+.+.+.+.+.+.+.1 1 + + + + + + + + + + =.-.S ;.:.>.,.<.1.S 2.=.C + + + + + + + + + + 1 1 +.",
"+.1 1 +.+.+.+.+.+.+.+.+.+.+.+.+.+.+.+.+.+.+.+.+.+.+.+.+.+.+.+.+.+.+.+.+.1 1 + + + + + + + + + + 3.4.S S S S S S S S 5.@ m + + + + + + + + + + 1 1 +.",
"6.1 1 6.6.6.6.6.6.6.6.6.6.6.6.6.6.6.6.6.6.6.6.6.6.6.6.6.6.6.6.6.6.6.6.6.1 1 + + + + + + + + + + 7.8.9.9.9.9.9.9.9.9.9.7.+ + + + + + + + + + + 1 1 6.",
"0.1 1 0.0.0.0.0.0.0.0.0.0.0.0.0.0.0.0.0.0.0.0.0.0.0.0.0.0.0.0.0.0.0.0.0.1 1 + + + + + + + + + + q.q.q.q.q.q.q.q.q.q.q.q.+ + + + + + + + + + + 1 1 0.",
"w.1 1 w.w.w.w.w.w.w.w.w.w.w.w.w.w.w.w.w.w.w.w.w.w.w.w.w.w.w.w.w.w.w.w.w.1 1 + + + + + + + + + + + + + + + + + + + + + + + + + + + + + + + + + 1 1 w.",
"e.1 1 e.e.e.e.e.e.e.e.e.e.e.e.e.e.e.e.e.e.e.e.e.e.e.e.e.e.e.e.e.e.e.e.e.1 1 + + + + + + + + + + + + + + + + + + + + + + + + + + + + + + + + + 1 1 e.",
"r.1 1 r.r.r.r.r.r.r.r.r.r.r.r.r.r.r.r.r.r.r.r.r.r.r.r.r.r.r.r.r.r.r.r.r.1 1 + + + + + + + + + + + + + + + + + + + + + + + + + + + + + + + + + 1 1 r.",
"t.1 1 t.t.t.t.t.t.t.t.t.t.t.t.t.t.t.t.t.t.t.t.t.t.t.t.t.t.t.t.t.t.t.t.t.1 1 + + + + + + + + + + + + + + + + + + + + + + + + + + + + + + + + + 1 1 t.",
"+ 1 1 + + + + + + + + + + + + + + + + + + + + + + + + + + + + + + + + + 1 1 + + + + + + + + + + + + + + + + + + + + + + + + + + + + + + + + + 1 1 + ",
"y.1 1 y.y.y.y.y.y.y.y.y.y.y.y.y.y.y.y.y.y.y.y.y.y.y.y.y.y.y.y.y.y.y.y.y.1 1 + + + + + + + + + + + + + + + + + + + + + + + + + + + + + + + + + 1 1 y.",
"u.1 1 u.u.u.u.u.u.u.u.u.u.u.u.u.u.u.u.u.u.u.u.u.u.u.u.u.u.u.u.u.u.u.u.u.1 1 + + + + + + + + + + + + + + + + + + + + + + + + + + + + + + + + + 1 1 u.",
"@ 1 1 @ @ @ @ @ @ @ @ @ @ @ @ @ @ @ @ @ @ @ @ @ @ @ @ @ @ @ @ @ @ @ @ @ 1 1 + + + + + + + + + + + + + + + + + + + + + + + + + + + + + + + + + 1 1 @ ",
"j 1 1 j j j j j j j j j j j j j j j j j j j j j j j j j j j j j j j j j 1 1 + + + + + + + + + + + + + + + + + + + + + + + + + + + + + + + + + 1 1 j ",
"i.1 1 i.i.i.i.i.i.i.i.i.i.i.i.i.i.i.i.i.i.i.i.i.i.i.i.i.i.i.i.i.i.i.i.i.1 1 + + + + + + + + + + + + + + + + + + + + + + + + + + + + + + + + + 1 1 i.",
"=.1 1 =.=.=.=.=.=.=.=.=.=.=.=.=.=.=.=.=.=.=.=.=.=.=.=.=.=.=.=.=.=.=.=.=.1 1 + + + + + + + + + + + + + + + + + + + + + + + + + + + + + + + + + 1 1 =.",
"i 1 1 i i i i i i i i i i i i i i i i i i i i i i i i i i i i i i i i i 1 1 + + + + + + + + + + + + + + + + + + + + + + + + + + + + + + + + + 1 1 i ",
"p.l l p.a.a.a.a.a.a.a.a.a.a.a.a.a.a.a.a.a.a.a.a.a.a.a.a.a.a.a.a.a.a.a.p.l l j + + + + + + + + + + + + + + + + + + + + + + + + + + + + + + + j l l p.",
"  . % & * = = = = = = = = = = = = = = = = = = = = = = = = = = = = = -   . X o O + + + + + + + + + + + + + + + + + + + + + + + + + + + + + @ # $ % & ",
"; : 5 6 7 8 8 8 8 8 8 8 8 8 8 8 8 8 8 8 8 8 8 8 8 8 8 8 8 8 8 8 8 8 9 ; : > , < 1 1 1 1 1 1 1 1 1 1 1 1 1 1 1 1 1 1 1 1 1 1 1 1 1 1 1 1 1 2 3 4 5 6 ",
", : 4 3 2 1 1 1 1 1 1 1 1 1 1 1 1 1 1 1 1 1 1 1 1 1 1 1 1 1 1 1 1 1 1 , : 4 3 2 1 1 1 1 1 1 1 1 1 1 1 1 1 1 1 1 1 1 1 1 1 1 1 1 1 1 1 1 1 < , : 4 3 ",
"0 q w u @ + + + + + + + + + + + + + + + + + + + + + + + + + + + + + i o . w e r t t t t t t t t t t t t t t t t t t t t t t t t t t t t t y 0 q w e ",
"p a s j + + + + + + + + + + + + + + + + + + + + + + + + + + + + + + + k l s d f g g g g g g g g g g g g g g g g g g g g g g g g g g g g g h p a s d ",
"z 1 1 + + + + + + + + + + + + + + + + + + + + + + + + + + + + + + + + + 1 1 x c c c c c c c c c c c c c c c c c c c c c c c c c c c c c c c z 1 1 x ",
"c 1 1 + + + + + + + + + + + + + + + + + + + + + + + + + + + + + + + + + 1 1 c c c c c c c c c c c c c c c c c c c c c c c c c c c c c c c c c 1 1 c ",
"c 1 1 + + + + + + + + + + + + + + + + + + + + + + + + + + + + + + + + + 1 1 c c c c c c c c c c c c c c c c c c c c c c c c c c c c c c c c c 1 1 c ",
"v 1 1 + + + + + + + + + + + + + + + + + + + + + + + + + + + + + + + + + 1 1 v v v v v v v v v v v v v v v v v v v v v v v v v v v v v v v v v 1 1 v ",
"b 1 1 + + + + + + + + + + + + + + + + + + + + + + + + + + + + + + + + + 1 1 b b b b b b b b b b b b b b b b b b b b b b b b b b b b b b b b b 1 1 b ",
"4 1 1 + + + + + + + + + + + + + + + + + + + + + + + + + + + + + + + + + 1 1 4 4 4 4 4 4 4 4 4 4 4 4 4 4 4 4 4 4 4 4 4 4 4 4 4 4 4 4 4 4 4 4 4 1 1 4 ",
"4 1 1 + + + + + + + + + + + + + + + + + + + + + + + + + + + + + + + + + 1 1 4 4 4 4 4 4 4 4 4 4 4 4 4 4 4 4 4 4 4 4 4 4 4 4 4 4 4 4 4 4 4 4 4 1 1 4 ",
"> 1 1 + + + + + + + + + + + + + + + + + + + + + + + + + + + + + + + + + 1 1 > > > > > > > > > > > > > > > > > > > > > > > > > > > > > > > > > 1 1 > ",
"> 1 1 + + + + + + + + + + + + + + + + + + + + + + + + + + + + + + + + + 1 1 > > > > > > > > > > > > > > > > > > > > > > > > > > > > > > > > > 1 1 > ",
": 1 1 + + + + + + + + + + + + + + + + + + + + + + + + + + + + + + + + + 1 1 : : : : : : : : : : : : : : : : : : : : : : : : : : : : : : : : : 1 1 : ",
": 1 1 + + + + + + + + + + + + + + + + + + + + + + + + + + + + + + + + + 1 1 : : : : : : : : : : : : : : : : : : : : : : : : : : : : : : : : : 1 1 : ",
": 1 1 + + + + + + + + + + n n n n n n n n n n n n m + + + + + + + + + + 1 1 : : : : : : : : : : : : : : : : : : : : : : : : : : : : : : : : : 1 1 : ",
"M 1 1 + + + + + + + + + + N B V V V V V V V V V ; C + + + + + + + + + + 1 1 M M M M M M M M M M M M M M M M M M M M M M M M M M M M M M M M M 1 1 M ",
"M 1 1 + + + + + + + + + + Z A S S S S S S S S A Z C + + + + + + + + + + 1 1 M M M M M M M M M M M M M M M M M M M M M M M M M M M M M M M M M 1 1 M ",
"5 1 1 + + + + + + + + + + D F S G H J K L P S I D C + + + + + + + + + + 1 1 5 5 5 5 5 5 5 5 5 5 5 5 5 5 5 5 5 5 5 5 5 5 5 5 5 5 5 5 5 5 5 5 5 1 1 5 ",
"5 1 1 + + + + + + + + + + U Y S T R E W Q ! S ~ U C + + + + + + + + + + 1 1 5 5 5 5 5 5 5 5 5 5 5 5 5 5 5 5 5 5 5 5 5 5 5 5 5 5 5 5 5 5 5 5 5 1 1 5 ",
"^ 1 1 + + + + + + + + + + q / S ( ) _ ` ' ] S [ q C + + + + + + + + + + 1 1 ^ ^ ^ ^ ^ ^ ^ ^ ^ ^ ^ ^ ^ ^ ^ ^ ^ ^ ^ ^ ^ ^ ^ ^ ^ ^ ^ ^ ^ ^ ^ ^ ^ 1 1 ^ ",
"^ 1 1 + + + + + + + + + + % { S } |  ...X.o.S O.w C + + + + + + + + + + 1 1 ^ ^ ^ ^ ^ ^ ^ ^ ^ ^ ^ ^ ^ ^ ^ ^ ^ ^ ^ ^ ^ ^ ^ ^ ^ ^ ^ ^ ^ ^ ^ ^ ^ 1 1 ^ ",
"+.1 1 + + + + + + + + + + = @.S #.$.%.%.$.&.S *.= C + + + + + + + + + + 1 1 +.+.+.+.+.+.+.+.+.+.+.+.+.+.+.+.+.+.+.+.+.+.+.+.+.+.+.+.+.+.+.+.+.1 1 +.",
"+.1 1 + + + + + + + + + + =.-.S ;.:.>.,.<.1.S 2.=.C + + + + + + + + + + 1 1 +.+.+.+.+.+.+.+.+.+.+.+.+.+.+.+.+.+.+.+.+.+.+.+.+.+.+.+.+.+.+.+.+.1 1 +.",
"+.1 1 + + + + + + + + + + 3.4.S S S S S S S S 5.@ m + + + + + + + + + + 1 1 +.+.+.+.+.+.+.+.+.+.+.+.+.+.+.+.+.+.+.+.+.+.+.+.+.+.+.+.+.+.+.+.+.1 1 +.",
"6.1 1 + + + + + + + + + + 7.8.9.9.9.9.9.9.9.9.9.7.+ + + + + + + + + + + 1 1 6.6.6.6.6.6.6.6.6.6.6.6.6.6.6.6.6.6.6.6.6.6.6.6.6.6.6.6.6.6.6.6.6.1 1 6.",
"0.1 1 + + + + + + + + + + q.q.q.q.q.q.q.q.q.q.q.q.+ + + + + + + + + + + 1 1 0.0.0.0.0.0.0.0.0.0.0.0.0.0.0.0.0.0.0.0.0.0.0.0.0.0.0.0.0.0.0.0.0.1 1 0.",
"w.1 1 + + + + + + + + + + + + + + + + + + + + + + + + + + + + + + + + + 1 1 w.w.w.w.w.w.w.w.w.w.w.w.w.w.w.w.w.w.w.w.w.w.w.w.w.w.w.w.w.w.w.w.w.1 1 w.",
"e.1 1 + + + + + + + + + + + + + + + + + + + + + + + + + + + + + + + + + 1 1 e.e.e.e.e.e.e.e.e.e.e.e.e.e.e.e.e.e.e.e.e.e.e.e.e.e.e.e.e.e.e.e.e.1 1 e.",
"r.1 1 + + + + + + + + + + + + + + + + + + + + + + + + + + + + + + + + + 1 1 r.r.r.r.r.r.r.r.r.r.r.r.r.r.r.r.r.r.r.r.r.r.r.r.r.r.r.r.r.r.r.r.r.1 1 r.",
"t.1 1 + + + + + + + + + + + + + + + + + + + + + + + + + + + + + + + + + 1 1 t.t.t.t.t.t.t.t.t.t.t.t.t.t.t.t.t.t.t.t.t.t.t.t.t.t.t.t.t.t.t.t.t.1 1 t.",
"+ 1 1 + + + + + + + + + + + + + + + + + + + + + + + + + + + + + + + + + 1 1 + + + + + + + + + + + + + + + + + + + + + + + + + + + + + + + + + 1 1 + ",
"y.1 1 + + + + + + + + + + + + + + + + + + + + + + + + + + + + + + + + + 1 1 y.y.y.y.y.y.y.y.y.y.y.y.y.y.y.y.y.y.y.y.y.y.y.y.y.y.y.y.y.y.y.y.y.1 1 y.",
"u.1 1 + + + + + + + + + + + + + + + + + + + + + + + + + + + + + + + + + 1 1 u.u.u.u.u.u.u.u.u.u.u.u.u.u.u.u.u.u.u.u.u.u.u.u.u.u.u.u.u.u.u.u.u.1 1 u.",
"@ 1 1 + + + + + + + + + + + + + + + + + + + + + + + + + + + + + + + + + 1 1 @ @ @ @ @ @ @ @ @ @ @ @ @ @ @ @ @ @ @ @ @ @ @ @ @ @ @ @ @ @ @ @ @ 1 1 @ ",
"j 1 1 + + + + + + + + + + + + + + + + + + + + + + + + + + + + + + + + + 1 1 j j j j j j j j j j j j j j j j j j j j j j j j j j j j j j j j j 1 1 j ",
"i.1 1 + + + + + + + + + + + + + + + + + + + + + + + + + + + + + + + + + 1 1 i.i.i.i.i.i.i.i.i.i.i.i.i.i.i.i.i.i.i.i.i.i.i.i.i.i.i.i.i.i.i.i.i.1 1 i.",
"=.1 1 + + + + + + + + + + + + + + + + + + + + + + + + + + + + + + + + + 1 1 =.=.=.=.=.=.=.=.=.=.=.=.=.=.=.=.=.=.=.=.=.=.=.=.=.=.=.=.=.=.=.=.=.1 1 =.",
"i 1 1 + + + + + + + + + + + + + + + + + + + + + + + + + + + + + + + + + 1 1 i i i i i i i i i i i i i i i i i i i i i i i i i i i i i i i i i 1 1 i ",
"p.l l j + + + + + + + + + + + + + + + + + + + + + + + + + + + + + + + j l l p.a.a.a.a.a.a.a.a.a.a.a.a.a.a.a.a.a.a.a.a.a.a.a.a.a.a.a.a.a.a.a.p.l l p.",
"  . X o O + + + + + + + + + + + + + + + + + + + + + + + + + + + + + @ # $ % & * = = = = = = = = = = = = = = = = = = = = = = = = = = = = = -   . % & ",
"; : > , < 1 1 1 1 1 1 1 1 1 1 1 1 1 1 1 1 1 1 1 1 1 1 1 1 1 1 1 1 1 2 3 4 5 6 7 8 8 8 8 8 8 8 8 8 8 8 8 8 8 8 8 8 8 8 8 8 8 8 8 8 8 8 8 8 9 ; : 5 6 ",
", : 4 3 2 1 1 1 1 1 1 1 1 1 1 1 1 1 1 1 1 1 1 1 1 1 1 1 1 1 1 1 1 1 < , : 4 3 2 1 1 1 1 1 1 1 1 1 1 1 1 1 1 1 1 1 1 1 1 1 1 1 1 1 1 1 1 1 1 , : 4 3 ",
"o . w e r t t t t t t t t t t t t t t t t t t t t t t t t t t t t t y 0 q w u @ + + + + + + + + + + + + + + + + + + + + + + + + + + + + + i o . w u "};
